<?xml version="1.0" encoding="UTF-8"?><svg id="Layer_2" xmlns="http://www.w3.org/2000/svg" viewBox="0 0 50 50"><defs><style>.cls-1{fill:#f2f2f3;}.cls-2{fill:#80b944;}.cls-3{fill:#192f44;}</style></defs><g id="Layer_1-2"><rect class="cls-2" x="0" y="0" width="50" height="50" rx="25" ry="25"/><path class="cls-1" d="m25.21,37.68c-5.74,0-10.77-4.08-11.95-9.69l-.1-.49,3.64-.77.1.49c.83,3.9,4.32,6.74,8.31,6.74.59,0,1.18-.06,1.76-.18,4.58-.97,7.52-5.49,6.55-10.07-.83-3.9-4.32-6.74-8.31-6.74-.59,0-1.18.06-1.76.18-.93.2-1.81.55-2.62,1.04h2.79s-.02,3.54-.02,3.54l-9.43-.04.72-9.4,3.52.27-.23,2.92c1.35-.95,2.89-1.63,4.5-1.97.83-.18,1.68-.27,2.53-.27,5.74,0,10.76,4.08,11.95,9.69.67,3.19.06,6.45-1.72,9.19-1.78,2.74-4.52,4.62-7.71,5.29-.83.18-1.69.27-2.53.27Z"/><path class="cls-3" d="m15.35,12.82l2.52.19-.27,3.55c1.48-1.26,3.26-2.16,5.19-2.56.81-.17,1.63-.25,2.43-.25,5.42,0,10.3,3.79,11.46,9.3,1.34,6.32-2.72,12.55-9.04,13.89-.81.17-1.63.25-2.43.25-5.42,0-10.3-3.79-11.46-9.3l2.67-.56c.89,4.23,4.64,7.14,8.8,7.14.61,0,1.24-.06,1.86-.2,4.85-1.03,7.97-5.81,6.94-10.66-.89-4.23-4.64-7.13-8.8-7.13-.61,0-1.24.06-1.86.2-1.51.32-2.9,1.02-4.05,2.02h3.81s-.01,2.54-.01,2.54l-8.39-.03.64-8.37m-.92-1.07l-.08,1-.64,8.37-.08,1.07h1.08s8.39.04,8.39.04h1s0-.99,0-.99v-2.53s.02-1,.02-1h-.81c.08-.02.17-.04.25-.06.55-.12,1.1-.17,1.66-.17,3.75,0,7.04,2.67,7.82,6.34.91,4.31-1.86,8.56-6.17,9.48-.55.12-1.1.17-1.66.17-3.75,0-7.04-2.67-7.82-6.34l-.21-.98-.98.21-2.67.56-.98.21.21.98c1.24,5.85,6.47,10.09,12.44,10.09.88,0,1.77-.09,2.63-.28,3.32-.7,6.17-2.66,8.02-5.51,1.86-2.85,2.49-6.25,1.79-9.57-1.24-5.85-6.47-10.09-12.44-10.09-.88,0-1.77.09-2.63.28-1.34.28-2.63.79-3.82,1.49l.11-1.42.08-1-1-.08-2.52-.19-1-.08h0Z"/></g></svg>